<svg viewBox="0 0 229 64" fill="none" xmlns="http://www.w3.org/2000/svg">
    <circle cx="31.9976" cy="31.9975" r="9.33546" stroke="#4F46E5" stroke-width="8.06" />
    <circle opacity="0.5" cx="32" cy="32" r="15.7631" fill="#4F46E5" stroke="#4F46E5" stroke-width="8.05622" />
    <circle opacity="0.35" cx="32" cy="32" r="27.9719" fill="#4F46E5" stroke="#4F46E5" stroke-width="8.05622" />
    <ellipse opacity="0.25" cx="32" cy="32" rx="26.3454" ry="26.3454" fill="#4F46E5" />
    <path
        d="M93.5158 40H87.4558V34.48C87.4558 32.28 86.8358 30.66 85.5958 29.62C84.3958 28.58 82.8558 28.06 80.9758 28.06C79.4958 28.06 78.1358 28.34 76.8958 28.9C75.6558 29.46 74.5958 30.12 73.7158 30.88L73.0558 25.96C73.9758 25.32 75.1958 24.7 76.7158 24.1C78.2358 23.46 79.9558 23.14 81.8758 23.14C85.3558 23.14 88.1558 24.06 90.2758 25.9C92.4358 27.74 93.5158 30.52 93.5158 34.24V40ZM68.4958 36.16H74.5558V51.88C74.2758 51.96 73.8758 52.06 73.3558 52.18C72.8758 52.3 72.3558 52.36 71.7958 52.36C70.6758 52.36 69.8358 52.16 69.2758 51.76C68.7558 51.32 68.4958 50.58 68.4958 49.54V36.16ZM87.4558 36.22L93.5158 36.28V51.88C93.2758 51.96 92.8958 52.06 92.3758 52.18C91.8558 52.3 91.3158 52.36 90.7558 52.36C89.6358 52.36 88.7958 52.16 88.2358 51.76C87.7158 51.32 87.4558 50.58 87.4558 49.54V36.22ZM74.5558 39.22H68.4958V13.06C68.7358 12.98 69.1158 12.9 69.6358 12.82C70.1558 12.7 70.7158 12.64 71.3158 12.64C72.3958 12.64 73.1958 12.84 73.7158 13.24C74.2758 13.64 74.5558 14.36 74.5558 15.4V39.22ZM128.651 37.96C128.651 41 128.071 43.64 126.911 45.88C125.751 48.08 124.111 49.8 121.991 51.04C119.871 52.24 117.391 52.84 114.551 52.84C111.671 52.84 109.171 52.24 107.051 51.04C104.931 49.8 103.291 48.08 102.131 45.88C100.971 43.64 100.391 41 100.391 37.96C100.391 34.92 100.971 32.3 102.131 30.1C103.331 27.9 104.991 26.2 107.111 25C109.231 23.76 111.711 23.14 114.551 23.14C117.351 23.14 119.811 23.76 121.931 25C124.051 26.2 125.691 27.9 126.851 30.1C128.051 32.3 128.651 34.92 128.651 37.96ZM114.551 28.06C112.111 28.06 110.171 28.94 108.731 30.7C107.291 32.46 106.571 34.88 106.571 37.96C106.571 41.12 107.271 43.58 108.671 45.34C110.071 47.06 112.031 47.92 114.551 47.92C117.031 47.92 118.951 47.04 120.311 45.28C121.711 43.52 122.411 41.08 122.411 37.96C122.411 34.88 121.711 32.46 120.311 30.7C118.911 28.94 116.991 28.06 114.551 28.06ZM135.944 36.16L142.004 36.7V51.88C141.764 51.96 141.384 52.06 140.864 52.18C140.384 52.3 139.844 52.36 139.244 52.36C138.124 52.36 137.284 52.16 136.724 51.76C136.204 51.32 135.944 50.58 135.944 49.54V36.16ZM142.004 39.7L135.944 39.22V13.06C136.184 12.98 136.564 12.9 137.084 12.82C137.604 12.7 138.144 12.64 138.704 12.64C139.864 12.64 140.704 12.84 141.224 13.24C141.744 13.64 142.004 14.36 142.004 15.4V39.7ZM177.577 37.96C177.577 41 176.997 43.64 175.837 45.88C174.677 48.08 173.037 49.8 170.917 51.04C168.797 52.24 166.317 52.84 163.477 52.84C160.597 52.84 158.097 52.24 155.977 51.04C153.857 49.8 152.217 48.08 151.057 45.88C149.897 43.64 149.317 41 149.317 37.96C149.317 34.92 149.897 32.3 151.057 30.1C152.257 27.9 153.917 26.2 156.037 25C158.157 23.76 160.637 23.14 163.477 23.14C166.277 23.14 168.737 23.76 170.857 25C172.977 26.2 174.617 27.9 175.777 30.1C176.977 32.3 177.577 34.92 177.577 37.96ZM163.477 28.06C161.037 28.06 159.097 28.94 157.657 30.7C156.217 32.46 155.497 34.88 155.497 37.96C155.497 41.12 156.197 43.58 157.597 45.34C158.997 47.06 160.957 47.92 163.477 47.92C165.957 47.92 167.877 47.04 169.237 45.28C170.637 43.52 171.337 41.08 171.337 37.96C171.337 34.88 170.637 32.46 169.237 30.7C167.837 28.94 165.917 28.06 163.477 28.06ZM184.03 15.34C184.03 14.34 184.37 13.5 185.05 12.82C185.77 12.14 186.67 11.8 187.75 11.8C188.83 11.8 189.71 12.14 190.39 12.82C191.07 13.5 191.41 14.34 191.41 15.34C191.41 16.34 191.07 17.18 190.39 17.86C189.71 18.54 188.83 18.88 187.75 18.88C186.67 18.88 185.77 18.54 185.05 17.86C184.37 17.18 184.03 16.34 184.03 15.34ZM184.69 36.16H190.81V51.88C190.53 51.96 190.13 52.06 189.61 52.18C189.13 52.3 188.59 52.36 187.99 52.36C186.91 52.36 186.09 52.16 185.53 51.76C184.97 51.32 184.69 50.58 184.69 49.54V36.16ZM190.81 39.22H184.69V24.16C184.97 24.04 185.35 23.94 185.83 23.86C186.35 23.74 186.91 23.68 187.51 23.68C188.63 23.68 189.45 23.9 189.97 24.34C190.53 24.74 190.81 25.46 190.81 26.5V39.22ZM212.769 23.14C215.289 23.14 217.549 23.68 219.549 24.76C221.589 25.84 223.189 27.48 224.349 29.68C225.509 31.84 226.089 34.6 226.089 37.96C226.089 41.28 225.469 44.06 224.229 46.3C223.029 48.5 221.349 50.14 219.189 51.22C217.029 52.3 214.509 52.84 211.629 52.84C209.509 52.84 207.629 52.58 205.989 52.06C204.349 51.54 202.989 50.96 201.909 50.32C201.069 49.76 200.469 49.2 200.109 48.64C199.789 48.08 199.629 47.36 199.629 46.48V26.8H205.689V46.24C206.249 46.64 207.029 47.02 208.029 47.38C209.069 47.74 210.249 47.92 211.569 47.92C214.089 47.92 216.109 47.12 217.629 45.52C219.149 43.88 219.909 41.36 219.909 37.96C219.909 34.52 219.149 32.02 217.629 30.46C216.109 28.86 214.149 28.06 211.749 28.06C210.229 28.06 208.889 28.36 207.729 28.96C206.569 29.52 205.609 30.16 204.849 30.88L204.129 25.96C205.049 25.32 206.209 24.7 207.609 24.1C209.049 23.46 210.769 23.14 212.769 23.14ZM205.689 28.12H199.629V13.06C199.869 12.98 200.249 12.9 200.769 12.82C201.289 12.7 201.849 12.64 202.449 12.64C203.529 12.64 204.329 12.84 204.849 13.24C205.409 13.64 205.689 14.36 205.689 15.4V28.12Z"
        fill="white" />
</svg>